<svg xmlns="http://www.w3.org/2000/svg" viewBox="0 0 479 923" fill="none"><defs/><g filter="url(#filter0_d)"><path fill="#FF243A" d="M9 17h155l290 889H299L9 17z"/></g><g filter="url(#filter1_d)"><path fill="#FF243A" d="M342.8 352.6c-2.2-1.7-53.4-40.8-88.1-34.6-1.8.3-3.6.8-5.2 1.3a31 31 0 00-2.6-4.7c-18.9-29.8-82.4-41.1-85.1-41.5a9 9 0 00-4 .3 8.2 8.2 0 00-3.2 2.4c-1.7 2.2-40.8 53.4-34.6 88.1.3 1.8.8 3.6 1.3 5.2a31 31 0 00-4.7 2.6c-29.8 18.9-41.1 82.4-41.5 85.1a9 9 0 00.3 4 8.2 8.2 0 002.4 3.2c2.2 1.7 53.4 40.8 88.1 34.6 1.8-.3 3.6-.8 5.2-1.3a31 31 0 002.6 4.7c18.9 29.8 82.4 41.1 85.1 41.5a9 9 0 004-.3 8.2 8.2 0 003.2-2.4c1.7-2.2 40.8-53.4 34.6-88.1-.3-1.8-.8-3.6-1.3-5.2a31 31 0 004.7-2.6c29.8-18.9 41.1-82.4 41.5-85.1a9 9 0 00-.3-4 7.7 7.7 0 00-2.4-3.2z"/><path fill="#F51B31" d="M345.2 460.5c-.4-2.7-10.2-66.9-39.7-86.6a44 44 0 00-4.7-2.7c.6-1.7 1.1-3.4 1.5-5.2 7.1-34.8-31-87.3-32.6-89.5-.8-1.1-1.9-2-3.1-2.5a7.8 7.8 0 00-4-.4c-2.7.4-66.9 10.2-86.6 39.7a44 44 0 00-2.7 4.7c-1.7-.6-3.4-1.1-5.2-1.5-34.8-7.1-87.3 31-89.5 32.6-1.1.8-2 1.9-2.5 3.1a7.8 7.8 0 00-.4 4c.4 2.7 10.2 66.9 39.7 86.6a44 44 0 004.7 2.7c-.6 1.7-1.1 3.4-1.5 5.2-7.1 34.8 31 87.3 32.6 89.5.8 1.1 1.9 2 3.1 2.5 1.3.5 2.6.6 4 .4 2.7-.4 66.9-10.2 86.6-39.7a44 44 0 002.7-4.7c1.7.6 3.4 1.1 5.2 1.5 34.8 7.1 87.3-31 89.5-32.6 1.1-.8 2-1.9 2.5-3.1.4-1.3.6-2.7.4-4z"/><path fill="#ED152B" d="M308.1 408.3c1.2-1.3 2.3-2.7 3.3-4.3 19.8-29.5 4.5-92.6 3.8-95.2a8 8 0 00-1.9-3.5 8 8 0 00-3.5-1.9c-2.7-.7-65.8-16-95.2 3.8-1.5 1-3 2.2-4.3 3.3a28.8 28.8 0 00-4.3-3.3c-29.5-19.8-92.6-4.5-95.2-3.8a8 8 0 00-3.5 1.9 8 8 0 00-1.9 3.5c-.7 2.7-16 65.8 3.8 95.2 1 1.5 2.2 3 3.3 4.3a28.8 28.8 0 00-3.3 4.3c-19.8 29.5-4.5 92.6-3.8 95.2a8 8 0 001.9 3.5 8 8 0 003.5 1.9c2.7.7 65.8 16 95.2-3.8 1.5-1 3-2.2 4.3-3.3 1.3 1.2 2.7 2.3 4.3 3.3 29.5 19.8 92.6 4.5 95.2 3.8a8 8 0 003.5-1.9 8 8 0 001.9-3.5c.7-2.7 16-65.8-3.8-95.2-1-1.6-2.1-3-3.3-4.3z"/><path fill="#CF081D" d="M331.2 405c-1.2-2-29.4-48.3-58.6-54l-4.5-.6-.6-4.5c-5.7-29.1-52.1-57.4-54-58.6a6.2 6.2 0 00-6.4 0c-2 1.2-48.3 29.4-54 58.6l-.6 4.5-4.5.6c-29.1 5.7-57.4 52.1-58.6 54a6.2 6.2 0 000 6.4c1.2 2 29.4 48.3 58.6 54l4.5.6.6 4.5c5.7 29.1 52.1 57.4 54 58.6a6.2 6.2 0 006.4 0c2-1.2 48.3-29.4 54-58.6l.6-4.5 4.5-.6c29.1-5.7 57.4-52.1 58.6-54a6.2 6.2 0 000-6.4z"/><path fill="#C1071B" d="M265.6 406.8c-.5-.9-13.4-22.1-26.8-24.7l-2.1-.3-.3-2.1c-2.6-13.3-23.8-26.2-24.7-26.8-.5-.3-1-.4-1.5-.4s-1 .2-1.5.4c-.9.5-22.1 13.4-24.7 26.8l-.3 2.1-2.1.3c-13.3 2.6-26.2 23.8-26.8 24.7-.3.5-.4 1-.4 1.5s.2 1 .4 1.5c.5.9 13.4 22.1 26.8 24.7l2.1.3.3 2.1c2.6 13.3 23.8 26.2 24.7 26.8.5.3 1 .4 1.5.4s1-.2 1.5-.4c.9-.5 22.1-13.4 24.7-26.8l.3-2.1 2.1-.3c13.3-2.6 26.2-23.8 26.8-24.7.3-.5.4-1 .4-1.5 0-.6-.1-1.1-.4-1.5z"/><path fill="#B20617" d="M210.3 443.3a35 35 0 100-70 35 35 0 000 70z"/></g><defs><filter id="filter0_d" width="479" height="923" x="0" y="0" color-interpolation-filters="sRGB" filterUnits="userSpaceOnUse"><feFlood flood-opacity="0" result="BackgroundImageFix"/><feColorMatrix in="SourceAlpha" values="0 0 0 0 0 0 0 0 0 0 0 0 0 0 0 0 0 0 127 0"/><feOffset dx="8"/><feGaussianBlur stdDeviation="8.5"/><feColorMatrix values="0 0 0 0 0 0 0 0 0 0 0 0 0 0 0 0 0 0 0.15 0"/><feBlend in2="BackgroundImageFix" result="effect1_dropShadow"/><feBlend in="SourceGraphic" in2="effect1_dropShadow" result="shape"/></filter><filter id="filter1_d" width="290.6" height="290.6" x="65" y="267" color-interpolation-filters="sRGB" filterUnits="userSpaceOnUse"><feFlood flood-opacity="0" result="BackgroundImageFix"/><feColorMatrix in="SourceAlpha" values="0 0 0 0 0 0 0 0 0 0 0 0 0 0 0 0 0 0 127 0"/><feOffset dy="4"/><feGaussianBlur stdDeviation="5"/><feColorMatrix values="0 0 0 0 0 0 0 0 0 0 0 0 0 0 0 0 0 0 0.08 0"/><feBlend in2="BackgroundImageFix" result="effect1_dropShadow"/><feBlend in="SourceGraphic" in2="effect1_dropShadow" result="shape"/></filter></defs></svg>