<svg xmlns="http://www.w3.org/2000/svg" width="240" height="269" fill="none"><defs/><circle cx="12.1" cy="142.1" r="8.6" fill="#CF081D" transform="rotate(42 12 142)"/><circle cx="156.6" cy="70.6" r="6.8" fill="#CF081D" opacity=".9" transform="rotate(50 156.6 70.6)"/><circle cx="220.1" cy="10.1" r="7.1" fill="#CF081D" opacity=".8" transform="rotate(-135 220 10)"/><circle cx="35.7" cy="29.7" r="5.7" fill="#CF081D" opacity=".9" transform="rotate(168 35.7 29.7)"/><circle cx="120.7" cy="165.5" r="5.6" fill="#CF081D" opacity=".7" transform="rotate(62 120.7 165.5)"/><circle cx="211.5" cy="146.5" r="5.4" fill="#CF081D" opacity=".7" transform="rotate(-56 211.5 146.5)"/><circle cx="58.4" cy="234.6" r="5.9" fill="#CF081D" opacity=".7" transform="rotate(-48 58.4 234.6)"/><circle cx="99.2" cy="244.7" r="10.3" fill="#CF081D" opacity=".9" transform="rotate(93 99.2 244.7)"/><circle cx="214.4" cy="243.4" r="18.3" fill="#CF081D" opacity=".9" transform="rotate(124 214.4 243.4)"/><circle cx="120.6" cy="148.6" r="6.8" fill="#CF081D" opacity=".9" transform="rotate(50 120.6 148.6)"/></svg>