<svg xmlns="http://www.w3.org/2000/svg" width="239" height="122" fill="none"><defs/><path fill="#CF081D" fill-rule="evenodd" d="M0 122h21a99.5 99.5 0 0198.5-100.4c54.4 0 98.5 45 98.5 100.4h21C239 54.6 185.5 0 119.5 0S0 54.6 0 122zm198 0c0-45-35.6-81.3-79.5-81.3C74.5 40.7 39 77 39 122h17c0-35 27.5-63.5 61.5-63.5S179 86.9 179 122h19zm-35 0c0-25.3-20-45.8-44.5-45.8A45.1 45.1 0 0074 122h17a26.6 26.6 0 0126.5-26.7c14.6 0 26.5 12 26.5 26.7h19zm-34 0c0-6.3-5.1-11.4-11.5-11.4s-11.5 5-11.5 11.4h23z" clip-rule="evenodd"/></svg>