<svg id="Layer_1" data-name="Layer 1" xmlns="http://www.w3.org/2000/svg" viewBox="0 0 475 440"><defs><style>.cls-1{opacity:0.66;}.cls-2{fill:#ff7381;}.cls-3{fill:#ffc2c9;}.cls-4{fill:#fdc8cd;opacity:0.2;}.cls-11,.cls-13,.cls-4{isolation:isolate;}.cls-5{fill:#ffbcc3;}.cls-6{fill:#e5e5e5;}.cls-7{fill:#ff243a;}.cls-8{fill:#cbcbcb;}.cls-9{fill:#ffc7c7;}.cls-10,.cls-13{fill:#2f2e41;}.cls-11{opacity:0.1;}.cls-12{fill:#f1f1f1;}.cls-13{opacity:0.17;}.cls-14{fill:#fff;}</style></defs><g class="cls-1"><path class="cls-2" d="M388.62,192.46c-13.46-7.8-31.21-8.34-46.89-8.87-6.35-.23-12.54-.46-17.67-1.15,5.13-.69,11.25-.92,17.67-1.15,15.68-.53,33.35-1.07,46.89-8.87,16.68-9.64,8.49-43.3,7.5-47a2.87,2.87,0,0,0-.92-1.53c-2.83-2.75-27.84-26.62-44.52-17-13.46,7.8-22.87,22.87-31.13,36.1-3.37,5.43-6.66,10.63-9.79,14.69,1.91-4.74,4.82-10.18,7.8-15.84,7.34-13.84,15.76-29.45,15.76-45.05,0-19.2-33.2-29-37-30a3.49,3.49,0,0,0-1.76,0c-3.83,1.07-37,10.79-37,30,0,15.53,8.34,31.21,15.76,45.05,3,5.59,5.89,11.1,7.8,15.84a165.45,165.45,0,0,1-9.79-14.69c-8.26-13.31-17.67-28.38-31.13-36.18-16.68-9.64-41.69,14.3-44.52,17.06a3.61,3.61,0,0,0-.92,1.53c-1,3.82-9.18,37.48,7.5,47,13.46,7.8,31.21,8.34,46.89,8.87,6.35.23,12.54.46,17.67,1.15-5.13.69-11.25.92-17.67,1.15-15.68.53-33.35,1.07-46.89,8.87-16.68,9.64-8.49,43.3-7.5,47.05a2.94,2.94,0,0,0,.92,1.53c2.83,2.75,27.84,26.62,44.52,17,13.46-7.8,22.87-22.87,31.13-36.1,3.37-5.43,6.66-10.63,9.79-14.69-1.91,4.74-4.82,10.18-7.8,15.84-7.34,13.84-15.76,29.45-15.76,45.05,0,19.2,33.2,29,37,30a3.5,3.5,0,0,0,1.76,0c3.82-1.07,37-10.79,37-30,0-15.53-8.34-31.21-15.76-45.05-3-5.59-5.89-11.1-7.8-15.84a165.45,165.45,0,0,1,9.79,14.69c8.26,13.31,17.67,28.38,31.13,36.18,16.68,9.64,41.69-14.3,44.52-17.06a3.51,3.51,0,0,0,.92-1.53C397.11,235.75,405.3,202.1,388.62,192.46Z"/><path class="cls-3" d="M298.82,173V96.31a3.37,3.37,0,1,0-6.73,0v76.8Z"/><path class="cls-3" d="M289,174.87l-66.39-38.33a3.36,3.36,0,0,0-3.37,5.82l66.55,38.4Z"/><path class="cls-3" d="M285.59,184.27l-66.4,38.33a3.36,3.36,0,1,0,3.37,5.81L289.11,190Z"/><path class="cls-3" d="M292.17,191.92v76.73a3.37,3.37,0,0,0,6.73,0v-76.8Z"/><path class="cls-3" d="M302,190.09l66.39,38.32a3.36,3.36,0,0,0,3.37-5.81l-66.55-38.4Z"/><path class="cls-3" d="M305.32,180.68l66.4-38.32a3.36,3.36,0,0,0-3.37-5.82l-66.55,38.4Z"/><path class="cls-4" d="M351,201.26a15.47,15.47,0,0,0-8.42-9.26l-21.87-9.49L342.57,173A15.48,15.48,0,0,0,351,163.7a15.37,15.37,0,0,0-23.72-17.14l-19.19,14.23L310.75,137a15.59,15.59,0,0,0-3.82-11.93A15.4,15.4,0,0,0,280.15,137l2.68,23.71-19.27-14.15a15.38,15.38,0,0,0-22.42,4.67,15.26,15.26,0,0,0-1.3,12.47,15.48,15.48,0,0,0,8.42,9.25l21.88,9.49L248.26,192a15.47,15.47,0,0,0-8.42,9.26,15.36,15.36,0,0,0,23.72,17.13l19.2-14.23L280.08,228a15.57,15.57,0,0,0,3.82,11.93A15.4,15.4,0,0,0,310.68,228L308,204.24l19.27,14.15A15.36,15.36,0,0,0,351,201.26Z"/><path class="cls-5" d="M295.45,196.82a14.31,14.31,0,1,0-14.3-14.31A14.31,14.31,0,0,0,295.45,196.82Z"/></g><path class="cls-6" d="M432.75,352.51,394.19,295.1s58.39,20.43,51.77,57.41Z"/><path class="cls-6" d="M33.05,352.89l-1.46,0a340.83,340.83,0,0,1,5.2-48.63c6.33-34.39,16.85-57,31.28-67.13l.84,1.2C35.21,262,33.07,352,33.05,352.89Z"/><path class="cls-6" d="M51.35,352.54l-1.46,0c0-1.62.94-39.92,16-50.5l.84,1.2C52.28,313.36,51.36,352.15,51.35,352.54Z"/><path class="cls-7" d="M77.24,238.43a7.34,7.34,0,1,0-7.32-7.34A7.33,7.33,0,0,0,77.24,238.43Z"/><path class="cls-7" d="M73.61,301.52a7.34,7.34,0,1,0-7.32-7.33A7.32,7.32,0,0,0,73.61,301.52Z"/><path class="cls-6" d="M47.94,242.83a32.6,32.6,0,0,1-2.21,16.68,29.75,29.75,0,0,1-5-31.89A32.66,32.66,0,0,1,47.94,242.83Z"/><path class="cls-6" d="M71.86,264.22a32.41,32.41,0,0,1-16.77.72,32.47,32.47,0,0,1,13.69-9.74,32.35,32.35,0,0,1,16.77-.73A32.54,32.54,0,0,1,71.86,264.22Z"/><path class="cls-6" d="M72.13,320.09a22.75,22.75,0,0,1-11.75.51,20.74,20.74,0,0,1,21.35-7.34,22.86,22.86,0,0,1-9.6,6.83Z"/><path class="cls-8" d="M474.27,354H.73a.74.74,0,0,1-.52-.22.76.76,0,0,1-.21-.52.78.78,0,0,1,.21-.52.78.78,0,0,1,.52-.21H474.27a.72.72,0,0,1,.73.73.76.76,0,0,1-.21.52A.74.74,0,0,1,474.27,354Z"/><path class="cls-9" d="M299.92,387.8l-6,15.62L231,387.7l8.83-23.05Z"/><path class="cls-10" d="M316.56,389.63,297.25,440l-.63-.24a21,21,0,0,1-12.05-27.14h0l11.79-30.77Z"/><path class="cls-6" d="M204.25,192.21l-27.43,2.57-1.36,81.83a15.36,15.36,0,0,0,16.36,14l17.39-1.2Z"/><path class="cls-6" d="M301,188.18l-18.77-.25-1.11,97.24a30.29,30.29,0,0,0,31.2-31.44Z"/><path class="cls-10" d="M192.05,319.71a61,61,0,0,1-1.93,8.33c-1,2.67-2.41,5.14-3.28,7.84-2.76,8.6,1.07,18.19,7.18,24.82a40.34,40.34,0,0,0,19.71,11.73c5.51,1.39,11.25,1.59,16.93,1.78,15.74.54,31.88,1,46.79-4a81.26,81.26,0,0,0,13.6-6.19,10.16,10.16,0,0,0,3.52-2.79c1.14-1.62,1.29-3.72,1.28-5.71,0-6.68-1.39-13.34-1.07-20,.18-3.7.87-7.4.53-11.08a20.42,20.42,0,0,0-15.59-17.62c-4.23-.91-8.62-.41-12.93,0a328.45,328.45,0,0,1-33.64,1.51c-11.47-.08-22.87-1.83-34.29-2-3.38-.06-3.31,1-4.38,4.26a81.41,81.41,0,0,0-2.43,9.2Z"/><path class="cls-10" d="M147.18,314.27a34.19,34.19,0,0,0-9.45-1,23.58,23.58,0,0,0-21.58,17.91,23.79,23.79,0,0,0-.3,9.94,39.75,39.75,0,0,0,3.74,10.25c2.51,5.1,5.51,10.18,10.15,13.45a39.37,39.37,0,0,0,8.95,4.27l24.42,9.22c3.6,1.36,7.19,2.71,10.82,4a210.79,210.79,0,0,0,56.48,11.26c5.87.35,11.82.45,17.54-.89a5.67,5.67,0,0,0,3.59-1.95,6.21,6.21,0,0,0,.81-2.65l1.5-10.55a8.93,8.93,0,0,0-.13-4.45c-.69-1.77-2.41-2.88-4.06-3.83-16-9.24-34.8-14.34-48.32-27-3.18-3-5.84-7.72-9.71-9.75-4.38-2.3-9.54-3.61-14.07-5.73C167.65,322.07,157.91,316.75,147.18,314.27Z"/><path class="cls-11" d="M171.56,328.49c8.63,2.71,45.08,21.5,51.32,28.05-.83.31-29.24-15.65-30.09-15.91-7.75-2.33-15.55-4.68-22.91-8.09-1.48-.68-9.61-3.91-9.24-5.78C161.05,324.64,170,328,171.56,328.49Z"/><path class="cls-6" d="M223.66,164.7l-23.25,17.69s-24.52.77-23.69,16.48S187.36,289,187.36,289l2.13,25.6,40.4,11.54a131.92,131.92,0,0,0,67,1.44h0l-4.8-25.69s19.43-116.64,7.72-121.77-19-3.67-19-3.67L266.07,163.6Z"/><path class="cls-10" d="M292.46,136.13c0,23-21.19,19.49-47.32,19.49s-47.31,3.47-47.31-19.49,10.35-63.67,47.31-63.67C283.38,72.46,292.46,113.17,292.46,136.13Z"/><path class="cls-9" d="M269.74,143.91a31.88,31.88,0,1,0-45,0A32,32,0,0,0,269.74,143.91Z"/><path class="cls-10" d="M208.2,120.54h12.59l5.56-15.6,1.11,15.6h6l3.24-9.1.64,9.1h44.72a33.75,33.75,0,0,0-33.7-33.79H241.9a33.75,33.75,0,0,0-33.7,33.79Z"/><path class="cls-7" d="M277.09,168.37H213.41v77h63.68Z"/><path class="cls-9" d="M216.92,387.06l6,15.62,63-15.71L277,363.91Z"/><path class="cls-10" d="M220.48,381.12l11.79,30.76h0a21,21,0,0,1-12,27.14l-.64.25-19.3-50.37Z"/><path class="cls-10" d="M342.77,308.29a43.91,43.91,0,0,1,15.49-1.06c4.14.46,8.4,1.62,11.42,4.49,3.68,3.49,4.86,8.9,5,14a43.74,43.74,0,0,1-9.47,27.9,25.27,25.27,0,0,1-5.41,5.22,36.1,36.1,0,0,1-7.05,3.41L298,383.85c-14.39,5.69-28.83,11.39-43.84,15.14a3.41,3.41,0,0,1-4.56-1.59l0-.08a113.35,113.35,0,0,1-12-22,1.42,1.42,0,0,1-.28-1.33,1.51,1.51,0,0,1,.34-.62,1.54,1.54,0,0,1,.59-.38l38.68-22.28a39.18,39.18,0,0,0,7.88-5.44,19.48,19.48,0,0,0,4-5.64c.8-1.68.88-5.64,1.9-6.88s4.43-1.31,6-1.79a56.84,56.84,0,0,0,6.55-2.48C312,324.61,319.68,319,328,314.43a63.39,63.39,0,0,1,14.79-6.14Z"/><path class="cls-11" d="M320.84,324.93c-6.64,5-15.25,9.61-21.84,14.74-2.25,1.75-39.72,22.87-40.25,25.68,6.14,1,45.29-26.42,50.89-29.15s10.57-6.61,15.49-10.44c1.25-1,6.56-3.91,3-5C326.07,320.14,322.34,323.93,320.84,324.93Z"/><path class="cls-12" d="M107.87,86.85A22.93,22.93,0,1,0,85,63.92,22.9,22.9,0,0,0,107.87,86.85Z"/><path class="cls-12" d="M121,137.16a16.08,16.08,0,1,0-16-16.08A16.07,16.07,0,0,0,121,137.16Z"/><path class="cls-12" d="M250.05,19.71a9.86,9.86,0,1,0-9.83-9.85A9.84,9.84,0,0,0,250.05,19.71Z"/><path class="cls-13" d="M191.45,217.52l.88-6.8s32.79,2.4,27.67,10.47-17.57,8.8-17.57,8.8Z"/><path class="cls-9" d="M216.2,188a12.82,12.82,0,0,1,9.32,5.73h0a12.76,12.76,0,0,1-5.86,18.86l-20.15,61.79a10.12,10.12,0,0,1-2.41,3.21,10.25,10.25,0,0,1-16.51-4.33,10.25,10.25,0,0,1,.51-7.86l21.43-61.11a12.79,12.79,0,0,1,2.5-11.81A12.75,12.75,0,0,1,216.2,188Z"/><path class="cls-6" d="M191.76,211.3s11.54,19.78,28.24,9.89l-16.18,62.06H190.19l-14.11-2.64L180,255Z"/><path class="cls-6" d="M274.21,224.82l-9.57-13.17s4.6-13.65,22.43-8.66C287.07,203,298.41,228.45,274.21,224.82Z"/><path class="cls-13" d="M274.21,224.82l-9.57-13.17s4.6-13.65,22.43-8.66C287.07,203,298.41,228.45,274.21,224.82Z"/><path class="cls-9" d="M276.74,178.82A12.76,12.76,0,0,1,283.58,194L305,255.07a10.3,10.3,0,0,1-1.51,11.34,10.14,10.14,0,0,1-7.07,3.45,10.24,10.24,0,0,1-9.83-5.8l-20.16-61.79a13.29,13.29,0,0,1-1.69-.84A12.88,12.88,0,0,1,261,198a13,13,0,0,1-2.12-4.67,12.85,12.85,0,0,1-.14-5.13,13.07,13.07,0,0,1,1.89-4.77h0a12.78,12.78,0,0,1,9.31-5.73A12.6,12.6,0,0,1,276.74,178.82Z"/><path class="cls-6" d="M264.64,211.65s15.79,9.6,22.43-8.66l22.24,58.7-6.61,11.59-.95.08a24.41,24.41,0,0,1-20.92-8.87h0a48.67,48.67,0,0,1-10.15-21.62Z"/><path class="cls-14" d="M244.51,210.48h-4.22V220H235V194h9.54q4.54,0,7,2.05a7.13,7.13,0,0,1,2.47,5.81,8,8,0,0,1-1.15,4.44,7.65,7.65,0,0,1-3.44,2.82L255,219.75V220h-5.68Zm-4.22-4.34h4.27a4.36,4.36,0,0,0,3.09-1,3.74,3.74,0,0,0,1.09-2.83,4,4,0,0,0-1-2.9,4.24,4.24,0,0,0-3.16-1h-4.25Z"/></svg>