<svg width="20" height="16" viewBox="0 0 20 16" fill="none" xmlns="http://www.w3.org/2000/svg">
<path d="M18.75 0H1.25C0.918479 0 0.600537 0.140476 0.366116 0.390524C0.131696 0.640573 0 0.979711 0 1.33333V14.6667C0 15.0203 0.131696 15.3594 0.366116 15.6095C0.600537 15.8595 0.918479 16 1.25 16H18.75C19.0815 16 19.3995 15.8595 19.6339 15.6095C19.8683 15.3594 20 15.0203 20 14.6667V1.33333C20 0.979711 19.8683 0.640573 19.6339 0.390524C19.3995 0.140476 19.0815 0 18.75 0ZM10.625 10.6667H4.375C4.20924 10.6667 4.05027 10.5964 3.93306 10.4714C3.81585 10.3464 3.75 10.1768 3.75 10C3.75 9.82319 3.81585 9.65362 3.93306 9.52859C4.05027 9.40357 4.20924 9.33333 4.375 9.33333H10.625C10.7908 9.33333 10.9497 9.40357 11.0669 9.52859C11.1842 9.65362 11.25 9.82319 11.25 10C11.25 10.1768 11.1842 10.3464 11.0669 10.4714C10.9497 10.5964 10.7908 10.6667 10.625 10.6667ZM15.625 8H4.375C4.20924 8 4.05027 7.92976 3.93306 7.80474C3.81585 7.67971 3.75 7.51014 3.75 7.33333C3.75 7.15652 3.81585 6.98695 3.93306 6.86193C4.05027 6.7369 4.20924 6.66667 4.375 6.66667H15.625C15.7908 6.66667 15.9497 6.7369 16.0669 6.86193C16.1842 6.98695 16.25 7.15652 16.25 7.33333C16.25 7.51014 16.1842 7.67971 16.0669 7.80474C15.9497 7.92976 15.7908 8 15.625 8ZM15.625 5.33333H4.375C4.20924 5.33333 4.05027 5.2631 3.93306 5.13807C3.81585 5.01305 3.75 4.84348 3.75 4.66667C3.75 4.48986 3.81585 4.32029 3.93306 4.19526C4.05027 4.07024 4.20924 4 4.375 4H15.625C15.7908 4 15.9497 4.07024 16.0669 4.19526C16.1842 4.32029 16.25 4.48986 16.25 4.66667C16.25 4.84348 16.1842 5.01305 16.0669 5.13807C15.9497 5.2631 15.7908 5.33333 15.625 5.33333Z" fill="#F0EEEE"/>
</svg>
