<svg width="21" height="16" viewBox="0 0 21 16" fill="none" xmlns="http://www.w3.org/2000/svg">
<path d="M19.1104 0.888933C19.0256 0.88061 18.9402 0.88061 18.8554 0.888933H1.43832C1.32669 0.890571 1.21581 0.906517 1.10864 0.93634L10.0971 9.46375L19.1104 0.888933Z" fill="#F0EEEE"/>
<path d="M20.0311 1.71252L10.9743 10.3051C10.7412 10.5259 10.4259 10.6498 10.0972 10.6498C9.76852 10.6498 9.45321 10.5259 9.22012 10.3051L0.244104 1.77771C0.21651 1.87433 0.201879 1.97388 0.200562 2.07401V13.9259C0.200562 14.2402 0.331634 14.5416 0.564943 14.7639C0.798253 14.9862 1.11469 15.111 1.44464 15.111H18.8617C19.1917 15.111 19.5081 14.9862 19.7414 14.7639C19.9747 14.5416 20.1058 14.2402 20.1058 13.9259V2.07401C20.1008 1.95054 20.0757 1.82858 20.0311 1.71252ZM2.29683 13.9259H1.4322V13.0784L5.95442 8.80586L6.83149 9.64141L2.29683 13.9259ZM18.8493 13.9259H17.9784L13.4438 9.64141L14.3208 8.80586L18.8431 13.0784L18.8493 13.9259Z" fill="#F0EEEE"/>
</svg>
