<svg width="16" height="16" viewBox="0 0 16 16" fill="none" xmlns="http://www.w3.org/2000/svg">
<g clip-path="url(#clip0)">
<path d="M8.00097 0.125C5.86045 0.125 5.59368 0.135336 4.75598 0.170773C3.91483 0.212117 3.34586 0.342547 2.84383 0.537453C2.3184 0.735815 1.84255 1.04638 1.44946 1.44751C1.04722 1.83968 0.736476 2.31579 0.539406 2.84188C0.3445 3.34391 0.21407 3.91287 0.172727 4.75402C0.134828 5.59222 0.126953 5.85849 0.126953 7.99902C0.126953 10.1395 0.137289 10.4063 0.172727 11.244C0.21407 12.0827 0.3445 12.6541 0.539406 13.1562C0.737768 13.6816 1.04834 14.1574 1.44946 14.5505C1.84163 14.9528 2.31774 15.2635 2.84383 15.4606C3.34586 15.653 3.91729 15.7859 4.75598 15.8273C5.59417 15.8652 5.86045 15.873 8.00097 15.873C10.1415 15.873 10.4083 15.8627 11.246 15.8273C12.0846 15.7859 12.6561 15.6525 13.1581 15.4606C13.6835 15.2622 14.1594 14.9516 14.5525 14.5505C14.9552 14.1588 15.2661 13.6825 15.4625 13.1562C15.655 12.6541 15.7879 12.0827 15.8292 11.244C15.8671 10.4058 15.875 10.1395 15.875 7.99902C15.875 5.85849 15.8646 5.59173 15.8292 4.75402C15.7879 3.91534 15.6545 3.34095 15.4625 2.84188C15.2642 2.31645 14.9536 1.8406 14.5525 1.44751C14.1607 1.04475 13.6845 0.733924 13.1581 0.537453C12.6561 0.342547 12.0846 0.212117 11.246 0.170773C10.4078 0.132875 10.1415 0.125 8.00097 0.125ZM8.00097 1.5425C10.1031 1.5425 10.3541 1.55284 11.1849 1.58827C11.9513 1.6242 12.3686 1.75217 12.6457 1.86045C12.9883 1.98691 13.2984 2.18818 13.5533 2.4496C13.8143 2.70349 14.0148 3.01284 14.14 3.35473C14.2483 3.63184 14.3763 4.04921 14.4122 4.81555C14.4476 5.64636 14.458 5.89787 14.458 7.99951C14.458 10.1011 14.4476 10.3527 14.4093 11.1835C14.3679 11.9498 14.2399 12.3672 14.1321 12.6443C13.983 13.0139 13.8167 13.2723 13.542 13.5519C13.2862 13.8117 12.9763 14.012 12.6344 14.1386C12.3608 14.2468 11.9375 14.3748 11.1682 14.4107C10.333 14.4462 10.0869 14.4565 7.97931 14.4565C5.87177 14.4565 5.62616 14.4462 4.78994 14.4078C4.0236 14.3664 3.60081 14.2385 3.32371 14.1307C2.94965 13.9816 2.69322 13.8152 2.41858 13.5406C2.14148 13.2635 1.96527 12.9996 1.82943 12.633C1.71918 12.3593 1.59318 11.936 1.55233 11.1667C1.52427 10.3413 1.51098 10.0854 1.51098 7.9877C1.51098 5.89098 1.52427 5.63455 1.55233 4.79881C1.59318 4.02952 1.71918 3.60723 1.82943 3.33259C1.96527 2.95803 2.14197 2.70209 2.41858 2.42499C2.69273 2.15084 2.94965 1.97366 3.32371 1.83486C3.60081 1.72707 4.01327 1.5991 4.78256 1.56071C5.6178 1.53069 5.86389 1.51986 7.96848 1.51986L8.00097 1.5425ZM8.00097 3.95766C7.47007 3.95747 6.94433 4.0619 6.4538 4.26497C5.96328 4.46805 5.51758 4.7658 5.14217 5.1412C4.76677 5.51661 4.46902 5.96231 4.26594 6.45284C4.06286 6.94336 3.95844 7.4691 3.95863 8C3.95844 8.5309 4.06286 9.05664 4.26594 9.54716C4.46902 10.0377 4.76677 10.4834 5.14217 10.8588C5.51758 11.2342 5.96328 11.5319 6.4538 11.735C6.94433 11.9381 7.47007 12.0425 8.00097 12.0423C8.53187 12.0425 9.05761 11.9381 9.54813 11.735C10.0387 11.5319 10.4844 11.2342 10.8598 10.8588C11.2352 10.4834 11.5329 10.0377 11.736 9.54716C11.9391 9.05664 12.0435 8.5309 12.0433 8C12.0435 7.4691 11.9391 6.94336 11.736 6.45284C11.5329 5.96231 11.2352 5.51661 10.8598 5.1412C10.4844 4.7658 10.0387 4.46805 9.54813 4.26497C9.05761 4.0619 8.53187 3.95747 8.00097 3.95766ZM8.00097 10.6248C6.55 10.6248 5.37613 9.45097 5.37613 8C5.37613 6.54903 6.55 5.37516 8.00097 5.37516C9.45194 5.37516 10.6258 6.54903 10.6258 8C10.6258 9.45097 9.45194 10.6248 8.00097 10.6248ZM13.1512 3.79623C13.151 4.04708 13.0511 4.28756 12.8737 4.46485C12.6962 4.64214 12.4556 4.74172 12.2047 4.74172C12.0807 4.74172 11.9579 4.71729 11.8433 4.66982C11.7287 4.62236 11.6246 4.55278 11.5369 4.46508C11.4492 4.37737 11.3796 4.27325 11.3321 4.15866C11.2847 4.04407 11.2602 3.92125 11.2602 3.79721C11.2602 3.67318 11.2847 3.55036 11.3321 3.43576C11.3796 3.32117 11.4492 3.21705 11.5369 3.12934C11.6246 3.04164 11.7287 2.97207 11.8433 2.9246C11.9579 2.87713 12.0807 2.8527 12.2047 2.8527C12.725 2.8527 13.1512 3.27598 13.1512 3.79623Z" fill="#F0EEEE"/>
</g>
<defs>
<clipPath id="clip0">
<rect x="0.125" y="0.125" width="15.75" height="15.75" fill="white"/>
</clipPath>
</defs>
</svg>
