<svg width="12" height="16" viewBox="0 0 12 16" fill="none" xmlns="http://www.w3.org/2000/svg">
<g clip-path="url(#clip0)">
<path d="M5.8182 4.79962e-10C4.308 0.00126137 2.85965 0.60009 1.78951 1.66569C0.719359 2.7313 0.114374 4.17708 0.106689 5.68727C0.106689 7.95152 1.37699 9.84727 2.3079 11.2291L2.4776 11.4812C3.40379 12.8236 4.39739 14.1182 5.45457 15.36L5.82305 15.7915L6.19154 15.36C7.24858 14.1181 8.24217 12.8235 9.16851 11.4812L9.3382 11.2242C10.2643 9.84242 11.5346 7.95152 11.5346 5.68727C11.5269 4.17625 10.9212 2.72973 9.85003 1.66399C8.77884 0.598244 7.32925 -1.95666e-05 5.8182 4.79962e-10ZM5.8182 8.24242C5.18914 8.24242 4.5742 8.05589 4.05115 7.7064C3.52811 7.35691 3.12044 6.86016 2.87971 6.27898C2.63898 5.6978 2.57599 5.05829 2.69871 4.44131C2.82144 3.82434 3.12436 3.25761 3.56918 2.81279C4.01399 2.36797 4.58072 2.06505 5.1977 1.94233C5.81468 1.8196 6.45419 1.88259 7.03537 2.12332C7.61655 2.36405 8.11329 2.77172 8.46278 3.29477C8.81227 3.81782 8.99881 4.43275 8.99881 5.06182C8.99881 5.90537 8.66371 6.71437 8.06723 7.31085C7.47075 7.90733 6.66175 8.24242 5.8182 8.24242Z" fill="#F0EEEE"/>
<path d="M5.81813 6.87027C6.81693 6.87027 7.62661 6.06058 7.62661 5.06178C7.62661 4.06298 6.81693 3.2533 5.81813 3.2533C4.81933 3.2533 4.00964 4.06298 4.00964 5.06178C4.00964 6.06058 4.81933 6.87027 5.81813 6.87027Z" fill="#F0EEEE"/>
</g>
<defs>
<clipPath id="clip0">
<rect width="11.6364" height="16" rx="2" fill="white"/>
</clipPath>
</defs>
</svg>
