<svg id="Logo_Rouverpa" data-name="Logo Rouverpa" xmlns="http://www.w3.org/2000/svg" viewBox="0 0 646.36 390.36"><defs><style>.cls-1,.cls-4{fill:none;stroke:#eb0a2c;stroke-miterlimit:10;}.cls-2{fill:#fa2436;}.cls-3{fill:#eb0a2c;}.cls-4{stroke-width:10px;}</style></defs><path d="M205.24,160.68a65,65,0,0,1,12-1c6.7,0,11,1.23,14.05,4a12.13,12.13,0,0,1,3.81,9.22c0,6.41-4,10.66-9.14,12.39v.21c3.74,1.3,6,4.75,7.13,9.79,1.58,6.77,2.73,11.45,3.74,13.33h-6.48c-.79-1.37-1.87-5.55-3.24-11.6-1.44-6.69-4-9.21-9.72-9.43H211.5v21h-6.26Zm6.26,22.11h6.41c6.7,0,11-3.67,11-9.22,0-6.26-4.54-9-11.16-9.07a26.37,26.37,0,0,0-6.2.57Z"/><path d="M293.59,183.79c0,16.71-10.16,25.57-22.54,25.57-12.82,0-21.82-9.94-21.82-24.63,0-15.41,9.58-25.49,22.54-25.49C285,159.24,293.59,169.39,293.59,183.79Zm-37.66.8c0,10.37,5.61,19.66,15.48,19.66S287,195.1,287,184.08c0-9.65-5-19.73-15.48-19.73S255.93,173.93,255.93,184.59Z"/><path d="M315.9,160v28.73c0,10.88,4.83,15.49,11.31,15.49,7.2,0,11.81-4.76,11.81-15.49V160h6.33v28.3c0,14.91-7.85,21-18.36,21-9.94,0-17.42-5.69-17.42-20.74V160Z"/><path d="M374.8,208.57,359,160h6.76l7.57,23.91c2.08,6.55,3.88,12.46,5.18,18.14h.14c1.37-5.61,3.39-11.73,5.55-18.07l8.21-24h6.69l-17.35,48.54Z"/><path d="M437.37,185.81H418.5v17.5h21v5.26H412.24V160h26.21v5.26H418.5v15.34h18.87Z"/><path d="M455.58,160.68a65,65,0,0,1,12-1c6.7,0,11,1.23,14,4a12.13,12.13,0,0,1,3.81,9.22c0,6.41-4,10.66-9.14,12.39v.21c3.74,1.3,6,4.75,7.13,9.79,1.58,6.77,2.73,11.45,3.74,13.33h-6.48c-.79-1.37-1.87-5.55-3.24-11.6-1.44-6.69-4-9.21-9.72-9.43h-5.91v21h-6.26Zm6.26,22.11h6.41c6.7,0,10.95-3.67,10.95-9.22,0-6.26-4.54-9-11.16-9.07a26.37,26.37,0,0,0-6.2.57Z"/><path d="M502.23,160.61a73.11,73.11,0,0,1,12-.94c6.19,0,10.73,1.44,13.61,4a13.05,13.05,0,0,1,4.25,10.15c0,4.39-1.3,7.85-3.75,10.37-3.31,3.53-8.71,5.33-14.83,5.33a21.54,21.54,0,0,1-5-.44v19.45h-6.27ZM508.5,184a20.94,20.94,0,0,0,5.18.51c7.56,0,12.17-3.68,12.17-10.37,0-6.41-4.53-9.51-11.45-9.51a26.07,26.07,0,0,0-5.9.51Z"/><path d="M550.26,193.3l-5,15.27h-6.48L555.23,160h7.56l16.56,48.54h-6.7l-5.18-15.27Zm15.91-4.9-4.75-14c-1.08-3.16-1.8-6-2.52-8.85h-.14c-.72,2.88-1.52,5.83-2.45,8.78l-4.75,14Z"/><path d="M209.39,230.84l-4-12.13h1.69l1.89,6c.52,1.64,1,3.12,1.3,4.54h0c.34-1.4.85-2.93,1.39-4.52l2.05-6h1.68l-4.34,12.13Z"/><path d="M219,226.77a2.8,2.8,0,0,0,3,3,5.71,5.71,0,0,0,2.41-.45l.27,1.13a7.06,7.06,0,0,1-2.9.54,4,4,0,0,1-4.28-4.39c0-2.63,1.55-4.7,4.09-4.7,2.84,0,3.6,2.5,3.6,4.1a5.31,5.31,0,0,1-.06.74Zm4.65-1.13a2.26,2.26,0,0,0-2.2-2.58,2.63,2.63,0,0,0-2.43,2.58Z"/><path d="M229.1,224.84c0-1,0-1.9-.08-2.71h1.39l.05,1.71h.08a2.61,2.61,0,0,1,2.41-1.91,2,2,0,0,1,.45,0v1.5a2.12,2.12,0,0,0-.54-.06,2.21,2.21,0,0,0-2.12,2,4,4,0,0,0-.08.74v4.64H229.1Z"/><path d="M237,225c0-1.12,0-2-.08-2.84h1.43l.07,1.49h0a3.44,3.44,0,0,1,3.1-1.69c2.11,0,3.69,1.78,3.69,4.43,0,3.13-1.91,4.68-4,4.68a3,3,0,0,1-2.68-1.37h0v4.74H237Zm1.56,2.32a4.18,4.18,0,0,0,.07.65,2.46,2.46,0,0,0,2.38,1.86c1.67,0,2.65-1.37,2.65-3.37,0-1.75-.92-3.24-2.6-3.24a2.52,2.52,0,0,0-2.39,2,2.76,2.76,0,0,0-.11.65Z"/><path d="M254.08,230.84l-.12-1.1h-.06a3.22,3.22,0,0,1-2.66,1.3,2.48,2.48,0,0,1-2.67-2.5c0-2.11,1.88-3.26,5.24-3.25v-.17a1.8,1.8,0,0,0-2-2,4.31,4.31,0,0,0-2.27.65l-.36-1.05a5.41,5.41,0,0,1,2.87-.77c2.66,0,3.31,1.82,3.31,3.56v3.26a13.14,13.14,0,0,0,.14,2.09Zm-.23-4.45c-1.73,0-3.69.27-3.69,2a1.4,1.4,0,0,0,1.49,1.51,2.16,2.16,0,0,0,2.11-1.46,1.76,1.76,0,0,0,.09-.5Z"/><path d="M261.48,226.12h0c.21-.3.52-.68.77-1l2.56-3h1.9l-3.36,3.58,3.83,5.13H265.3l-3-4.18-.81.9v3.28h-1.57V218.06h1.57Z"/><path d="M272.21,226.12h0c.22-.3.52-.68.78-1l2.55-3h1.91l-3.37,3.58,3.84,5.13H276l-3-4.18-.81.9v3.28h-1.57V218.06h1.57Z"/><path d="M283.13,219.68a1,1,0,0,1-2,0,1,1,0,0,1,1-1A.94.94,0,0,1,283.13,219.68Zm-1.76,11.16v-8.71H283v8.71Z"/><path d="M287.56,224.49c0-.91,0-1.64-.07-2.36h1.4l.09,1.44h0a3.2,3.2,0,0,1,2.88-1.64c1.2,0,3.08.72,3.08,3.71v5.2h-1.59v-5c0-1.41-.52-2.58-2-2.58a2.25,2.25,0,0,0-2.13,1.62,2.35,2.35,0,0,0-.11.74v5.24h-1.58Z"/><path d="M307,222.13c0,.63-.07,1.33-.07,2.39v5.06c0,2-.4,3.22-1.25,4a4.62,4.62,0,0,1-3.17,1,5.58,5.58,0,0,1-2.89-.72l.39-1.2a4.94,4.94,0,0,0,2.56.68c1.62,0,2.81-.84,2.81-3v-1h0a3.11,3.11,0,0,1-2.77,1.45c-2.16,0-3.71-1.83-3.71-4.24,0-3,1.93-4.63,3.92-4.63a2.88,2.88,0,0,1,2.72,1.51h0l.07-1.31Zm-1.64,3.44a2.36,2.36,0,0,0-.09-.73,2.29,2.29,0,0,0-2.22-1.67c-1.51,0-2.59,1.28-2.59,3.3,0,1.71.87,3.13,2.58,3.13a2.31,2.31,0,0,0,2.19-1.62,2.79,2.79,0,0,0,.13-.85Z"/><path d="M312.45,226.77a2.8,2.8,0,0,0,3,3,5.71,5.71,0,0,0,2.41-.45l.27,1.13a7,7,0,0,1-2.89.54,4,4,0,0,1-4.29-4.39c0-2.63,1.55-4.7,4.09-4.7,2.84,0,3.6,2.5,3.6,4.1a5.31,5.31,0,0,1-.06.74Zm4.65-1.13a2.26,2.26,0,0,0-2.2-2.58,2.63,2.63,0,0,0-2.43,2.58Z"/><path d="M322.57,224.49c0-.91,0-1.64-.07-2.36h1.4l.09,1.44h0a3.2,3.2,0,0,1,2.88-1.64c1.2,0,3.08.72,3.08,3.71v5.2H328.4v-5c0-1.41-.52-2.58-2-2.58a2.25,2.25,0,0,0-2.13,1.62,2.35,2.35,0,0,0-.11.74v5.24h-1.58Z"/><path d="M393,225.15h-4.72v4.38h5.26v1.31h-6.83V218.71h6.56V220h-5v3.83H393Z"/><path d="M399.39,219.62v2.51h2.27v1.2h-2.27V228c0,1.08.3,1.69,1.19,1.69a3.69,3.69,0,0,0,.91-.1l.08,1.18a3.84,3.84,0,0,1-1.41.22,2.17,2.17,0,0,1-1.71-.67,3.2,3.2,0,0,1-.61-2.26v-4.76h-1.35v-1.2h1.35V220Z"/><path d="M407.18,219.68a1,1,0,0,1-2,0,1,1,0,0,1,1-1A.94.94,0,0,1,407.18,219.68Zm-1.76,11.16v-8.71H407v8.71Z"/><path d="M413.17,226.12h0c.22-.3.52-.68.78-1l2.55-3h1.91l-3.37,3.58,3.84,5.13H417l-3-4.18-.82.9v3.28h-1.56V218.06h1.56Z"/><path d="M422.91,226.77a2.8,2.8,0,0,0,3,3,5.8,5.8,0,0,0,2.42-.45l.26,1.13a7,7,0,0,1-2.89.54,4,4,0,0,1-4.29-4.39c0-2.63,1.55-4.7,4.09-4.7,2.84,0,3.6,2.5,3.6,4.1,0,.33,0,.58,0,.74Zm4.65-1.13a2.26,2.26,0,0,0-2.2-2.58,2.63,2.63,0,0,0-2.43,2.58Z"/><path d="M434.94,219.62v2.51h2.27v1.2h-2.27V228c0,1.08.3,1.69,1.19,1.69a3.69,3.69,0,0,0,.91-.1l.08,1.18a3.84,3.84,0,0,1-1.41.22,2.17,2.17,0,0,1-1.71-.67,3.2,3.2,0,0,1-.61-2.26v-4.76H432v-1.2h1.35V220Z"/><path d="M442.88,219.62v2.51h2.26v1.2h-2.26V228c0,1.08.3,1.69,1.18,1.69a3.78,3.78,0,0,0,.92-.1l.07,1.18a3.74,3.74,0,0,1-1.4.22,2.17,2.17,0,0,1-1.71-.67,3.2,3.2,0,0,1-.61-2.26v-4.76H440v-1.2h1.35V220Z"/><path d="M449.68,226.77a2.8,2.8,0,0,0,3,3,5.75,5.75,0,0,0,2.41-.45l.27,1.13a7.09,7.09,0,0,1-2.9.54,4,4,0,0,1-4.28-4.39c0-2.63,1.55-4.7,4.08-4.7,2.85,0,3.61,2.5,3.61,4.1a5.31,5.31,0,0,1-.06.74Zm4.65-1.13a2.27,2.27,0,0,0-2.2-2.58,2.63,2.63,0,0,0-2.43,2.58Z"/><path d="M459.79,224.49c0-.91,0-1.64-.07-2.36h1.41l.09,1.44h0a3.21,3.21,0,0,1,2.88-1.64c1.21,0,3.08.72,3.08,3.71v5.2h-1.58v-5c0-1.41-.52-2.58-2-2.58a2.25,2.25,0,0,0-2.12,1.62,2.35,2.35,0,0,0-.11.74v5.24h-1.59Z"/><path d="M524,218.71h1.56v10.82h5.19v1.31H524Z"/><path d="M536.17,219.68a1,1,0,0,1-2,0,1,1,0,0,1,1-1A.94.94,0,0,1,536.17,219.68Zm-1.77,11.16v-8.71H536v8.71Z"/><path d="M540.59,224.49c0-.91,0-1.64-.07-2.36h1.4l.09,1.44h0a3.2,3.2,0,0,1,2.88-1.64c1.21,0,3.08.72,3.08,3.71v5.2h-1.58v-5c0-1.41-.53-2.58-2-2.58a2.25,2.25,0,0,0-2.13,1.62,2.37,2.37,0,0,0-.1.74v5.24h-1.59Z"/><path d="M554.4,219.62v2.51h2.27v1.2H554.4V228c0,1.08.31,1.69,1.19,1.69a3.69,3.69,0,0,0,.91-.1l.08,1.18a3.8,3.8,0,0,1-1.41.22,2.17,2.17,0,0,1-1.71-.67,3.2,3.2,0,0,1-.61-2.26v-4.76H551.5v-1.2h1.35V220Z"/><path d="M561.2,226.77a2.8,2.8,0,0,0,3,3,5.71,5.71,0,0,0,2.41-.45l.27,1.13a7.06,7.06,0,0,1-2.9.54,4,4,0,0,1-4.28-4.39c0-2.63,1.55-4.7,4.09-4.7,2.84,0,3.6,2.5,3.6,4.1a5.31,5.31,0,0,1-.06.74Zm4.65-1.13a2.26,2.26,0,0,0-2.2-2.58,2.63,2.63,0,0,0-2.43,2.58Z"/><path d="M571.32,224.49c0-.91,0-1.64-.07-2.36h1.4l.09,1.44h0a3.2,3.2,0,0,1,2.88-1.64c1.2,0,3.08.72,3.08,3.71v5.2h-1.59v-5c0-1.41-.52-2.58-2-2.58a2.25,2.25,0,0,0-2.12,1.62,2.35,2.35,0,0,0-.11.74v5.24h-1.58Z"/><circle cx="358.5" cy="225.5" r="3.5"/><circle cx="495.5" cy="225.5" r="3.5"/><polyline class="cls-1" points="134.5 186.5 160.5 201.5 160.5 231.5 134.5 246.5 109.5 231.5 83.5 246.5 57.5 230.5 57.5 201.5 83.5 186.5"/><polyline class="cls-1" points="57.5 201.5 83.46 216.8 109.14 201.99 133.82 216.8 160.5 201.5"/><polyline class="cls-1" points="108.5 141.5 108.5 171.5 134.5 186.5 160.5 171.5 160.5 142.5 134.5 126.5 108.5 141.5 83.5 126.5 57.5 141.5 57.5 171.5 83.5 186.5 108.5 171.5"/><polyline class="cls-1" points="160.5 171.5 134.26 157.09 108.58 171.91 83.89 157.09 57.5 171.5"/><polyline class="cls-1" points="83.5 186.5 109.5 202.5 109.5 231.5"/><line class="cls-1" x1="83.5" y1="246.5" x2="83.5" y2="216.5"/><line class="cls-1" x1="134.5" y1="246.5" x2="134.35" y2="216.5"/><line class="cls-1" x1="83.5" y1="126.5" x2="83.5" y2="157.5"/><line class="cls-1" x1="134.5" y1="126.5" x2="134.5" y2="157.5"/><line class="cls-1" x1="134.5" y1="186.5" x2="109.5" y2="202.5"/><line class="cls-2" x1="109.13" y1="201.99" x2="114.53" y2="199.28"/><polygon class="cls-3" points="108.5 171.5 134.5 186.5 109.5 202.5 83.5 186.5 108.5 171.5"/><polygon class="cls-3" points="135 246 160 232 160 202 134 217 135 246"/><polygon class="cls-3" points="58 202 84 217 83 246 58 231 58 202"/><polyline class="cls-3" points="84 127 108 141 108 171 83 156"/><polyline class="cls-4" points="334.44 281.95 341.9 279.09 190.78 336.12 157.15 247.69"/><polyline class="cls-4" points="105.37 111.55 256.48 54.52 277.44 108.95"/></svg>